<svg xmlns="http://www.w3.org/2000/svg" width="46" height="46" viewBox="0 0 46 46">
  <g id="Group_31110" data-name="Group 31110" transform="translate(-32 -129)">
    <rect id="Rectangle_872" data-name="Rectangle 872" width="46" height="46" rx="4" transform="translate(32 129)" fill="none"/>
    <g id="ra_bannericon_doorstep" transform="translate(39 137)">
      <rect id="Rectangle_2370" data-name="Rectangle 2370" width="30" height="30" fill="none"/>
      <g id="Group_14896" data-name="Group 14896" transform="translate(2050.995 -5040.878)">
        <path id="Path_27378" data-name="Path 27378" d="M1417.527-565.135H1408v-9.53" transform="translate(-3455.204 5625.287)" fill="none" stroke="#363636" stroke-linecap="round" stroke-linejoin="round" stroke-width="1.2"/>
        <path id="Path_27379" data-name="Path 27379" d="M1674.662-585.332v2.382" transform="translate(-3706.979 5635.358)" fill="none" stroke="#363636" stroke-linecap="round" stroke-linejoin="round" stroke-width="1.2"/>
        <path id="Path_27380" data-name="Path 27380" d="M1376-703.8l9.53-9.53,7.386,7.409v2.121H1376Z" transform="translate(-3424.991 5756.21)" fill="#4d52a0" stroke="#363636" stroke-linecap="round" stroke-linejoin="round" stroke-width="1.2"/>
        <path id="Path_27381" data-name="Path 27381" d="M1433.565-701.463v-3.628h-2.3v5.93" transform="translate(-3477.171 5748.43)" fill="none" stroke="#363636" stroke-linecap="round" stroke-linejoin="round" stroke-width="1.2"/>
        <path id="Path_27382" data-name="Path 27382" d="M1472-504.709v-5.956h3.574v5.956" transform="translate(-3515.63 5564.861)" fill="none" stroke="#363636" stroke-linejoin="round" stroke-width="1.2"/>
        <path id="path466" d="M1425.016-2231.4a1.913,1.913,0,0,0,1.815-1.815v-3.176c0-1.5-2.508-2.269-4.084-2.269s-4.084.77-4.084,2.269v4.991" transform="translate(-3451.021 7295.183)" fill="none" stroke="#363636" stroke-linejoin="round" stroke-width="1.2"/>
        <path id="path468" d="M1568-2164.224v-10.437" transform="translate(-3594.001 7233.906)" fill="none" stroke="#363636" stroke-linejoin="round" stroke-width="1.2"/>
        <path id="path470" d="M1461.33-2174.661v4.538" transform="translate(-3491.873 7233.906)" fill="none" stroke="#49494a" stroke-linecap="round" stroke-linejoin="round" stroke-width="1.2"/>
        <path id="path472" d="M1514.663-2078.661v6.353" transform="translate(-3542.937 7141.99)" fill="none" stroke="#363636" stroke-linejoin="round" stroke-width="1.2"/>
        <path id="path474" d="M1461.33-1982.662v2.269" transform="translate(-3491.873 7050.075)" fill="none" stroke="#49494a" stroke-linecap="round" stroke-linejoin="round" stroke-width="1.2"/>
        <path id="path476" d="M1380.081-2064.365H1376v-3.63h4.084Z" transform="translate(-3410.17 7131.777)" fill="none" stroke="#363636" stroke-linejoin="round" stroke-width="1.2"/>
        <path id="path478" d="M1473.811-2372.79a1.74,1.74,0,0,0,1.815-1.815v-.908a1.74,1.74,0,0,0-1.815-1.815,1.74,1.74,0,0,0-1.815,1.815v.908A1.74,1.74,0,0,0,1473.811-2372.79Z" transform="translate(-3502.086 7427.949)" fill="none" stroke="#363636" stroke-linejoin="round" stroke-width="1.2"/>
      </g>
    </g>
  </g>
</svg>
